<?xml version="1.0" encoding="UTF-8"?>
<svg id="uuid-112bc822-32d3-4c8b-b4c1-578be0063646" data-name="Layer 1" xmlns="http://www.w3.org/2000/svg" width="905.89" height="905.89" viewBox="0 0 905.89 905.89">
  <defs>
    <style>
      .uuid-6d91d37e-3717-4c8f-911b-2350c14db3b0 {
        fill: #eb4d36;
      }

      .uuid-4e66c29f-cf99-421e-92c0-bd9c17045320 {
        fill: #243665;
      }
    </style>
  </defs>
  <path class="uuid-4e66c29f-cf99-421e-92c0-bd9c17045320" d="M134.37,387.83L494.8,224.21l-37.11,130.89-227.68,98.18,172.02,98.17-37.11,130.89L97.26,518.73l37.11-130.89Z"/>
  <path class="uuid-6d91d37e-3717-4c8f-911b-2350c14db3b0" d="M600.45,355.11l-9.28,32.73h171.3l-37.1,130.89h-171.3l-46.38,163.62h-114.2l32.59-114.98c8.4,4.9,16.81,9.79,25.23,14.7-1.14-30.93-2.24-61.01-3.38-91.77l.4-1.41c4.64,0,9.06,0,13.49,0,24.61-.05,52.73-.18,77.29-.06l1.44-4.25c4.13-15,8.41-30,12.65-45,2.08-7.37,4.17-14.74,6.37-22.49h-91.24l.82-1.66c18.28-30.5,36.32-60.58,54.79-91.4-11.02,4.88-22.03,9.77-33.03,14.64l32.44-114.45h285.5l-37.11,130.89h-171.3Z"/>
</svg>